<?xml version="1.0" encoding="UTF-8" standalone="no"?>
<!-- Created with Inkscape (http://www.inkscape.org/) -->

<svg
   width="1080"
   height="1080"
   viewBox="0 0 285.75 285.75001"
   version="1.1"
   id="svg5"
   inkscape:version="1.2.1 (9c6d41e410, 2022-07-14)"
   sodipodi:docname="icon.svg"
   xml:space="preserve"
   xmlns:inkscape="http://www.inkscape.org/namespaces/inkscape"
   xmlns:sodipodi="http://sodipodi.sourceforge.net/DTD/sodipodi-0.dtd"
   xmlns:xlink="http://www.w3.org/1999/xlink"
   xmlns="http://www.w3.org/2000/svg"
   xmlns:svg="http://www.w3.org/2000/svg"><sodipodi:namedview
     id="namedview7"
     pagecolor="#ffffff"
     bordercolor="#000000"
     borderopacity="0.25"
     inkscape:showpageshadow="2"
     inkscape:pageopacity="0.0"
     inkscape:pagecheckerboard="0"
     inkscape:deskcolor="#d1d1d1"
     inkscape:document-units="mm"
     showgrid="false"
     inkscape:zoom="0.2287265"
     inkscape:cx="214.22966"
     inkscape:cy="-262.32203"
     inkscape:window-width="1920"
     inkscape:window-height="1009"
     inkscape:window-x="2552"
     inkscape:window-y="156"
     inkscape:window-maximized="1"
     inkscape:current-layer="layer1" /><defs
     id="defs2"><linearGradient
       inkscape:collect="always"
       id="linearGradient1513"><stop
         style="stop-color:#23516e;stop-opacity:1;"
         offset="0"
         id="stop1509" /><stop
         style="stop-color:#0b2132;stop-opacity:1;"
         offset="1"
         id="stop1511" /></linearGradient><radialGradient
       inkscape:collect="always"
       xlink:href="#linearGradient1513"
       id="radialGradient1515"
       cx="142.875"
       cy="142.875"
       fx="142.875"
       fy="142.875"
       r="142.875"
       gradientUnits="userSpaceOnUse" /></defs><g
     inkscape:label="Layer 1"
     inkscape:groupmode="layer"
     id="layer1"><rect
       style="fill:url(#radialGradient1515);stroke-width:0.456239;stroke-linecap:round;stroke-linejoin:round;paint-order:markers stroke fill;stop-color:#000000;fill-opacity:1"
       id="rect930"
       width="285.75"
       height="285.75"
       x="0"
       y="0"
       rx="0"
       ry="0" /><g
       aria-label="ODEX"
       id="text47364-0-9"
       style="font-weight:900;font-size:50.8px;line-height:1.4;font-family:Poppins;-inkscape-font-specification:'Poppins Heavy';white-space:pre;fill:#ffffff;stroke:none;stroke-width:0.264583;stroke-linecap:round;stroke-linejoin:round;paint-order:markers stroke fill;stop-color:#000000"
       transform="matrix(1.2212077,0,0,1.2212077,-161.56702,35.821178)"><path
         d="m 249.51375,165.99321 q -21.57097,0 -39.65573,-10.02287 -17.86686,-10.02288 -28.54341,-27.88974 -10.45865,-18.08476 -10.45865,-40.527291 0,-22.442527 10.45865,-40.309388 10.67655,-17.866866 28.54341,-27.889742 18.08476,-10.0228754 39.65573,-10.0228754 21.57097,0 39.43784,10.0228754 18.08475,10.022876 28.32552,27.889742 10.45865,17.866861 10.45865,40.309388 0,22.442531 -10.45865,40.527291 -10.45866,17.86686 -28.32552,27.88974 -17.86687,10.02287 -39.43784,10.02287 z m 0,-33.99062 q 18.30264,0 29.19707,-12.20176 11.11232,-12.20176 11.11232,-32.247521 0,-20.263641 -11.11232,-32.24751 -10.89443,-12.201762 -29.19707,-12.201762 -18.52053,0 -29.63285,11.983874 -10.89443,11.983869 -10.89443,32.465398 0,20.263651 10.89443,32.465411 11.11232,11.98387 29.63285,11.98387 z"
         style="font-weight:bold;-inkscape-font-specification:'Poppins Bold';fill:#ffffff;stroke:none;stroke-width:1.13484"
         id="path47416-3-9" /><g
         aria-label="ODEX"
         id="text47364-0"
         style="font-weight:900;font-size:50.8px;line-height:1.4;font-family:Poppins;-inkscape-font-specification:'Poppins Heavy';white-space:pre;fill:#15354b;fill-opacity:1;stroke:none;stroke-width:0.264583;stroke-linecap:round;stroke-linejoin:round;paint-order:markers stroke fill;stop-color:#000000"
         transform="matrix(0.55661454,0,0,0.55661454,78.143212,111.31836)"
         inkscape:export-filename="logo_large.png"
         inkscape:export-xdpi="188.78999"
         inkscape:export-ydpi="188.78999"><path
           d="m 254.83896,77.569818 q -5.0292,0 -9.2456,-2.3368 -4.1656,-2.3368 -6.6548,-6.5024 -2.4384,-4.2164 -2.4384,-9.4488 0,-5.2324 2.4384,-9.397999 2.4892,-4.1656 6.6548,-6.5024 4.2164,-2.3368 9.2456,-2.3368 5.0292,0 9.1948,2.3368 4.2164,2.3368 6.604,6.5024 2.4384,4.165599 2.4384,9.397999 0,5.2324 -2.4384,9.4488 -2.4384,4.1656 -6.604,6.5024 -4.1656,2.3368 -9.1948,2.3368 z m 0,-7.9248 q 4.2672,0 6.8072,-2.8448 2.5908,-2.8448 2.5908,-7.5184 0,-4.7244 -2.5908,-7.518399 -2.54,-2.8448 -6.8072,-2.8448 -4.318,0 -6.9088,2.794 -2.54,2.793999 -2.54,7.569199 0,4.7244 2.54,7.5692 2.5908,2.794 6.9088,2.794 z"
           style="font-weight:bold;-inkscape-font-specification:'Poppins Bold';fill:#15354b;fill-opacity:1;stroke:none"
           id="path47416-3" /><path
           d="m 291.26253,41.552619 q 5.63879,0 9.85519,2.2352 4.2164,2.2352 6.5024,6.2992 2.3368,4.013199 2.3368,9.296399 0,5.2324 -2.3368,9.2964 -2.286,4.064 -6.5532,6.2992 -4.2164,2.2352 -9.80439,2.2352 h -13.3604 V 41.552619 Z m -0.5588,28.143199 q 4.9276,0 7.67079,-2.6924 2.7432,-2.6924 2.7432,-7.62 0,-4.9276 -2.7432,-7.670799 -2.74319,-2.7432 -7.67079,-2.7432 h -4.1148 v 20.726399 z"
           style="font-weight:bold;-inkscape-font-specification:'Poppins Bold';fill:#15354b;fill-opacity:1;stroke:none"
           id="path47418-9" /><path
           d="m 323.52049,48.512219 v 7.213599 h 11.6332 v 6.7056 h -11.6332 v 7.8232 h 13.1572 v 6.9596 h -21.844 V 41.552619 h 21.844 v 6.9596 z"
           style="font-weight:bold;-inkscape-font-specification:'Poppins Bold';fill:#15354b;fill-opacity:1;stroke:none"
           id="path47420-7" /><path
           id="path47422-4"
           style="font-weight:bold;-inkscape-font-specification:'Poppins Bold';fill:#15354b;fill-opacity:1;stroke:none"
           d="m 340.3863,41.552522 11.62409,17.435628 5.5547,-6.805786 -7.06985,-10.629842 z m 23.57117,0 -6.22185,10.637594 4.84674,7.156152 -5.59346,7.085356 7.17166,10.782804 H 374.2695 L 362.48417,59.535921 373.81268,41.552522 Z m -11.93984,17.610295 -11.3776,18.051611 h 9.85521 l 6.32675,-10.795723 z" /></g></g><circle
       style="fill:#10d990;fill-opacity:1;stroke:none;stroke-width:1.82352;stroke-linecap:round;stroke-linejoin:round;stroke-dasharray:none;stroke-opacity:1;paint-order:markers stroke fill;stop-color:#000000"
       id="path47481-1-7-1-4"
       cx="142.875"
       cy="142.875"
       r="18.93461" /><circle
       style="fill:#10d990;fill-opacity:1;stroke:none;stroke-width:0.212171;stroke-linecap:round;stroke-linejoin:round;stroke-dasharray:none;stroke-opacity:1;paint-order:markers stroke fill;stop-color:#000000"
       id="path47481-1-7-1-4-0"
       cx="107.11671"
       cy="211.75113"
       r="2.2030921" /></g></svg>
