<?xml version="1.0" encoding="UTF-8" standalone="no"?>
<!-- Created with Inkscape (http://www.inkscape.org/) -->

<svg
   width="2500"
   height="1080"
   viewBox="0 0 661.45833 285.75001"
   version="1.1"
   id="svg5"
   inkscape:version="1.2.1 (9c6d41e410, 2022-07-14)"
   sodipodi:docname="socials.svg"
   xml:space="preserve"
   xmlns:inkscape="http://www.inkscape.org/namespaces/inkscape"
   xmlns:sodipodi="http://sodipodi.sourceforge.net/DTD/sodipodi-0.dtd"
   xmlns="http://www.w3.org/2000/svg"
   xmlns:svg="http://www.w3.org/2000/svg"><sodipodi:namedview
     id="namedview7"
     pagecolor="#ffffff"
     bordercolor="#000000"
     borderopacity="0.25"
     inkscape:showpageshadow="2"
     inkscape:pageopacity="0.0"
     inkscape:pagecheckerboard="0"
     inkscape:deskcolor="#d1d1d1"
     inkscape:document-units="mm"
     showgrid="false"
     inkscape:zoom="0.64693624"
     inkscape:cx="1721.9626"
     inkscape:cy="279.78028"
     inkscape:window-width="2048"
     inkscape:window-height="1081"
     inkscape:window-x="-8"
     inkscape:window-y="-8"
     inkscape:window-maximized="1"
     inkscape:current-layer="layer1" /><defs
     id="defs2" /><g
     inkscape:label="Layer 1"
     inkscape:groupmode="layer"
     id="layer1"><circle
       style="fill:#000000;stroke:#ffffff;stroke-width:18.52083333;stroke-linecap:round;stroke-linejoin:round;stroke-dasharray:none;paint-order:markers stroke fill;stop-color:#000000"
       id="path377-9"
       cx="242.46896"
       cy="137.6553"
       r="68.53846"
       inkscape:export-filename="github.png"
       inkscape:export-xdpi="8.1620703"
       inkscape:export-ydpi="8.1620703" /><circle
       style="fill:#000000;stroke:#ffffff;stroke-width:18.52083333;stroke-linecap:round;stroke-linejoin:round;stroke-dasharray:none;paint-order:markers stroke fill;stop-color:#000000"
       id="path377"
       cx="87.576973"
       cy="138.28331"
       r="68.53846"
       inkscape:export-filename="twitter.png"
       inkscape:export-xdpi="8.1620712"
       inkscape:export-ydpi="8.1620712" /><path
       style="fill:#ffffff;stroke-width:0.191654;stroke:#ffffff"
       d="m 66.804906,178.92818 c -6.8488,-0.3831 -13.63612,-2.01737 -19.91134,-4.79429 -2.40728,-1.06528 -5.680993,-2.79235 -6.920223,-3.65082 l -0.67078,-0.46469 0.67078,0.14145 c 1.0726,0.22619 6.827263,0.16574 8.816093,-0.0926 6.86484,-0.89173 13.40528,-3.45308 18.75198,-7.34359 l 1.21313,-0.88273 -1.11856,-0.12387 c -5.08614,-0.56327 -8.97044,-2.3441 -12.33987,-5.65746 -2.35994,-2.32065 -3.65977,-4.2446 -4.7691,-7.05897 l -0.36804,-0.93372 2.73255,0.0928 c 1.66236,0.0564 3.25193,0.004 4.05866,-0.13253 2.18838,-0.37179 2.23185,-0.41915 0.75115,-0.81863 -2.0474,-0.55237 -5.34633,-2.25739 -7.09798,-3.66852 -3.37919,-2.7223 -5.80887,-6.54491 -6.89806,-10.85269 -0.29104,-1.15105 -0.682573,-4.6087 -0.541563,-4.78242 0.0346,-0.0426 0.675123,0.20481 1.423473,0.54974 1.76568,0.81386 4.26431,1.49494 6.09187,1.66056 l 1.4541,0.13176 -1.52814,-1.23208 c -4.97549,-4.01159 -7.850183,-10.90181 -7.1902,-17.23388 0.10399,-0.99779 0.36123,-2.48546 0.57163,-3.30595 0.39851,-1.55402 1.78806,-4.74383 2.05946,-4.72766 0.0859,0.005 0.54428,0.48682 1.01862,1.07044 1.58262,1.94723 6.21709,6.29503 8.66429,8.12837 8.92175,6.68376 18.739912,10.42614 29.927422,11.4074 l 1.50668,0.13215 -0.1651,-1.0307 c -0.0908,-0.56689 -0.16064,-2.32437 -0.15519,-3.90551 0.0109,-3.16293 0.32847,-4.8049 1.45066,-7.5005 1.24861,-2.99932 4.01861,-6.44304 6.75068,-8.3926 1.71129,-1.22116 4.5514,-2.52687 6.780422,-3.11721 1.63116,-0.43201 2.25863,-0.4963 4.8445,-0.4963 2.6001,0 3.20914,0.0631 4.88268,0.50597 3.18543,0.84295 6.07809,2.41548 8.78021,4.77317 l 1.04659,0.91319 2.18005,-0.56245 c 2.70331,-0.69744 5.7003,-1.84529 8.3054,-3.18099 l 1.99145,-1.02106 -0.27494,0.77926 c -0.43981,1.24655 -1.58807,3.40573 -2.47309,4.65036 -0.97494,1.37109 -3.75767,4.08478 -5.03309,4.90821 l -0.91065,0.58794 1.05409,-0.13034 c 2.45563,-0.30363 7.15687,-1.58807 9.51975,-2.60092 l 0.84239,-0.36109 -0.60561,0.88022 c -1.74703,2.53921 -5.18124,6.14908 -7.98373,8.39205 l -1.38949,1.11209 v 3.09397 c 0,14.55063 -6.4092,29.73089 -17.01298,40.29541 -8.22437,8.19391 -18.660312,13.45479 -30.133882,15.19083 -4.27212,0.6464 -8.728882,0.87876 -12.649152,0.65946 z"
       id="path323" /><circle
       style="fill:#000000;stroke:#ffffff;stroke-width:18.52083333;stroke-linecap:round;stroke-linejoin:round;stroke-dasharray:none;paint-order:markers stroke fill;stop-color:#000000"
       id="path377-9-3"
       cx="403.2533"
       cy="141.50673"
       r="68.53846"
       inkscape:export-filename="discord.png"
       inkscape:export-xdpi="8.1620722"
       inkscape:export-ydpi="8.1620722" /><circle
       style="fill:#000000;stroke:#ffffff;stroke-width:18.52083333;stroke-linecap:round;stroke-linejoin:round;stroke-dasharray:none;paint-order:markers stroke fill;stop-color:#000000"
       id="path377-9-3-6"
       cx="566.02692"
       cy="134.14511"
       r="68.53846"
       inkscape:export-filename="newsletter.png"
       inkscape:export-xdpi="8.1620703"
       inkscape:export-ydpi="8.1620703" /><path
       id="path377-9-6"
       style="fill:#ffffff;stroke:#ffffff;stroke-width:9.665;stroke-linecap:round;stroke-linejoin:round;stroke-dasharray:none;paint-order:markers stroke fill;stop-color:#000000"
       d="m 208.34913,91.191948 c -0.29993,0.0013 -0.60381,0.01659 -0.83922,0.04599 l -0.85628,0.10697 -0.46406,1.41335 c -1.24225,3.78227 -1.62715,6.401288 -1.51411,10.302212 0.0833,2.8764 0.40054,4.83906 1.0914,6.7536 0.21125,0.58545 0.21012,0.66588 -0.015,0.85007 -0.47039,0.38489 -2.46876,3.18049 -3.25304,4.55115 -2.71071,4.73746 -3.93886,10.2353 -3.67471,16.44602 0.47893,11.26027 3.3954,18.97588 9.27696,24.54217 4.10723,3.88708 9.74964,6.55583 16.89509,7.99073 1.79164,0.35978 4.90015,0.85031 5.43378,0.85731 0.11792,0.002 -0.10483,0.344 -0.49506,0.7612 -0.9334,0.99786 -1.75137,2.29366 -2.36213,3.74034 -0.50593,1.19834 -1.29915,4.07464 -1.29915,4.71134 0,0.29688 -0.1897,0.42529 -1.20406,0.81648 -3.56655,1.37541 -7.06012,1.72583 -10.0583,1.00873 -1.56065,-0.37327 -3.95638,-1.59488 -5.20227,-2.65255 -1.54714,-1.31343 -2.06163,-1.95786 -4.30671,-5.39451 -2.42796,-3.71654 -5.82506,-6.11476 -9.45937,-6.67762 -1.79487,-0.27799 -3.46973,0.11263 -3.98477,0.92914 -0.42058,0.66676 0.61936,1.96468 2.71198,3.3848 3.29762,2.23789 5.60521,5.37793 7.60057,10.34201 0.38445,0.95645 1.02935,2.26902 1.43298,2.91662 0.83253,1.33574 2.48723,3.14417 3.80339,4.15737 2.03378,1.56565 4.97771,2.77745 7.85637,3.23339 2.55062,0.40398 8.16577,0.13532 10.20713,-0.48834 0.22221,-0.0679 0.25813,0.53781 0.35811,6.01565 0.0613,3.35023 0.0627,6.36063 0.003,6.68952 -0.20229,1.11607 -0.82473,2.04128 -1.66708,2.47943 v 0.001 c -0.3918,0.20374 -1.01908,0.33062 -1.64331,0.36794 a 68.53846,68.53846 0 0 0 20.72173,3.22719 68.53846,68.53846 0 0 0 20.5047,-3.15123 c -0.75249,-0.0885 -1.49528,-0.37615 -1.96836,-0.80356 -1.14555,-1.03495 -1.09903,-0.4683 -1.12965,-13.67566 -0.0299,-12.8865 -0.0222,-12.76294 -0.96479,-15.77733 -0.56162,-1.79596 -1.81806,-4.13853 -2.805,-5.22913 -0.78184,-0.86396 -0.80995,-0.92249 -0.47491,-0.98599 0.19594,-0.0371 1.50383,-0.24703 2.9068,-0.46664 8.55008,-1.33835 14.7607,-4.0433 19.38383,-8.44238 5.76735,-5.48787 8.6727,-13.24464 9.14828,-24.42641 0.23439,-5.51064 -0.7189,-10.48551 -2.85564,-14.90245 -0.84217,-1.74086 -2.43876,-4.21004 -3.55896,-5.50458 l -0.73587,-0.85007 0.28991,-0.8506 c 0.77341,-2.26764 0.96791,-3.7655 0.96531,-7.42073 -0.002,-3.177604 -0.0381,-3.646814 -0.41599,-5.423962 -0.22754,-1.06998 -0.66447,-2.71579 -0.971,-3.65766 l -0.55759,-1.71256 -0.87798,-0.1018 c -0.48281,-0.05603 -1.50329,-0.01917 -2.26808,0.08165 -4.0226,0.53049 -8.8652,2.63522 -14.40222,6.259558 l -1.726,1.12965 -1.1343,-0.29559 c -10.52799,-2.745208 -22.23152,-2.769778 -32.40163,-0.0677 l -1.43041,0.38033 -1.73891,-1.13843 c -5.78985,-3.789978 -10.54576,-5.797158 -15.06006,-6.356198 -0.21966,-0.02775 -0.51552,-0.04061 -0.81546,-0.03927 z" /><path
       style="fill:#ffffff;stroke-width:0.174437;stroke:#ffffff"
       d="m 373.554,178.56911 c -7.64308,-2.6668 -14.82552,-6.32011 -21.58727,-10.98026 l -2.17906,-1.50179 -0.11216,-1.00999 c -0.24699,-2.22421 -0.32518,-12.07592 -0.11828,-14.90296 1.08714,-14.85392 5.57943,-28.33787 13.91062,-41.7537 2.24066,-3.60817 2.19151,-3.55702 4.25699,-4.43012 5.95718,-2.51817 12.24486,-4.450505 18.17947,-5.586939 1.03622,-0.19843 1.96024,-0.360781 2.05337,-0.360781 0.0931,0 0.80255,1.27557 1.57653,2.83461 0.99695,2.00814 1.49174,2.8306 1.69704,2.82088 0.1594,-0.007 1.54576,-0.16454 3.08081,-0.34888 3.85913,-0.46342 13.90226,-0.47107 17.7926,-0.0136 1.43911,0.16925 2.78443,0.34905 2.98961,0.39957 0.3328,0.082 0.52533,-0.2201 1.785,-2.80038 0.87514,-1.792628 1.50967,-2.892241 1.66898,-2.892241 0.49003,0 5.42962,1.065933 7.77305,1.677375 3.33879,0.871146 8.57883,2.654636 11.71316,3.986636 l 2.67793,1.13803 1.32645,2.05015 c 6.77983,10.47881 11.3073,21.48064 13.47772,32.75109 1.16751,6.06259 1.5546,10.30539 1.55168,17.00764 -9.3e-4,2.92619 -0.0885,6.22306 -0.19371,7.32637 -0.22435,2.35158 0.089,1.96617 -3.60265,4.43006 -6.67639,4.4559 -13.91948,8.0279 -21.23322,10.4714 -1.31353,0.43885 -2.46624,0.7979 -2.56156,0.7979 -0.36921,0 -4.0436,-5.65283 -5.34607,-8.2246 l -0.58742,-1.1599 0.99637,-0.39559 c 3.17645,-1.2612 8.12496,-3.73944 8.02139,-4.01717 -0.0261,-0.0701 -0.49895,-0.47689 -1.0507,-0.904 l -1.00317,-0.77654 -2.14097,0.91904 c -10.50236,4.50833 -22.5973,6.11932 -33.88004,4.51268 -5.74201,-0.81765 -12.60107,-2.76441 -17.34736,-4.92358 l -1.1247,-0.51164 -1.09222,0.80677 c -0.60071,0.44372 -1.09544,0.85327 -1.09938,0.9101 -0.0114,0.16489 5.31808,2.84921 7.22371,3.63839 0.95487,0.39543 1.76418,0.74703 1.79849,0.78134 0.27516,0.27516 -5.39454,9.22067 -5.88949,9.29229 -0.14391,0.0208 -1.6746,-0.45514 -3.40154,-1.0577 z m 13.94775,-25.14815 c 2.59931,-0.67702 4.93776,-2.62897 6.17623,-5.15539 0.39572,-0.80729 0.8508,-1.97802 1.01125,-2.60162 0.38526,-1.49731 0.37531,-4.25622 -0.0207,-5.75644 -1.04932,-3.97465 -4.34964,-7.11486 -8.07529,-7.68352 -4.6924,-0.71621 -9.24971,2.66033 -10.60584,7.85796 -0.38675,1.48227 -0.39112,4.09708 -0.009,5.582 1.44575,5.62297 6.54324,9.05427 11.52372,7.75701 z m 35.73146,0.007 c 1.7027,-0.4435 3.07725,-1.2556 4.39638,-2.59743 3.36056,-3.41841 4.15424,-8.64923 1.99386,-13.1406 -0.76802,-1.5967 -2.43836,-3.45803 -3.83211,-4.2703 -3.68924,-2.15006 -8.01669,-1.5627 -11.06739,1.50218 -4.35761,4.37785 -4.32836,11.63859 0.0644,15.97926 2.42127,2.39257 5.46453,3.30317 8.44487,2.52689 z"
       id="path1787" /><path
       style="fill:#ffffff;stroke:#ffffff;stroke-width:0.292704"
       d="m 483.54846,-112.59472 c -0.46788,-0.14104 -1.28949,-0.68173 -1.82579,-1.20153 -1.96742,-1.9069 -1.88901,-0.68827 -1.7971,-27.93341 l 0.083,-24.60814 0.88658,-1.73526 c 0.72721,-1.4233 1.60862,-2.36598 4.9028,-5.24361 l 4.01621,-3.50835 v -5.34595 -5.34596 l 6.80539,-0.004 6.80537,-0.004 3.10151,-2.55682 c 8.95544,-7.38264 16.48426,-13.43523 17.18415,-13.81473 1.06688,-0.5785 4.06631,-0.55201 5.17962,0.0458 0.48296,0.25931 5.32487,4.04066 10.75981,8.40298 l 9.8817,7.93152 h 6.58292 6.58292 v 4.95741 4.95741 l 1.97576,1.7363 c 1.08666,0.95496 3.09535,2.7184 4.46373,3.91874 1.81481,1.59195 2.72559,2.64607 3.36611,3.89587 l 0.87811,1.71342 0.08,24.75448 0.08,24.75448 -0.6654,1.3002 c -0.36597,0.71511 -1.17154,1.70299 -1.79016,2.19528 l -1.12476,0.89509 -42.7809,0.05 c -23.81144,0.0279 -43.15809,-0.0637 -43.63157,-0.20644 z m 80.30703,-5.63376 c -1.86054,-1.46794 -19.31062,-15.15618 -30.25645,-23.73386 l -7.29204,-5.71439 -0.75733,0.59506 c -0.92113,0.72375 -8.64655,6.97421 -16.23604,13.13616 -3.0778,2.49889 -8.69136,7.03063 -12.47456,10.07052 -3.7832,3.03988 -7.00368,5.63837 -7.15662,5.77438 -0.15293,0.13603 16.57512,0.24313 37.17345,0.23801 29.4933,-0.008 37.35549,-0.0851 36.99959,-0.36588 z m -69.06535,-10.91148 c 11.52203,-9.24569 14.80912,-11.94398 14.8905,-12.2232 0.054,-0.18533 -22.77968,-18.63916 -23.98384,-19.38338 -0.16809,-0.10388 -0.2732,7.40034 -0.2732,19.50499 0,18.70914 0.0251,19.6523 0.51223,19.2347 0.28174,-0.24152 4.26618,-3.45142 8.85431,-7.13311 z m 73.10684,-21.90665 -0.0771,-9.81966 -12.40971,9.70382 -12.4097,9.70381 0.84788,0.69439 c 0.8325,0.68179 6.69772,5.27392 14.86937,11.64185 2.27246,1.77086 5.25009,4.10577 6.61695,5.1887 l 2.48521,1.96897 0.0771,-9.63113 c 0.0424,-5.29711 0.0424,-14.04995 0,-19.45075 z m -19.44193,-1.49215 8.96739,-7.0249 0.003,-11.34362 0.003,-11.34363 -31.09985,0.0744 -31.09984,0.0745 -0.0707,10.83005 c -0.0389,5.95654 0.027,10.96625 0.14635,11.1327 0.30672,0.42761 2.87269,2.47805 3.10109,2.47805 0.10422,0 0.18938,-1.5806 0.18938,-3.51245 v -3.51245 h 10.97642 10.97641 v 7.17125 c 0,3.9442 0.0988,7.1699 0.21953,7.16822 0.12074,-0.002 1.36328,-0.9237 2.76122,-2.04893 1.39792,-1.12524 2.64924,-2.04053 2.78069,-2.03399 0.13144,0.007 0.69503,0.40169 1.25241,0.87811 l 1.0134,0.86622 h 6.08467 6.08468 v 1.45548 1.4555 l -4.09216,0.0812 -4.09215,0.0812 2.99451,2.36707 c 2.43137,1.92194 3.08274,2.30726 3.46363,2.04894 0.25802,-0.17499 4.50444,-3.47936 9.43649,-7.34306 z m -23.98522,-3.19188 c -0.0867,-0.22616 -0.11558,-0.85181 -0.064,-1.39035 l 0.0938,-0.97915 11.635,-0.0765 11.635,-0.0766 v 1.46689 1.46688 h -11.57101 c -9.66683,0 -11.59697,-0.0677 -11.7288,-0.4112 z m -0.11654,-6.90641 v -2.04894 h 14.0498 14.04981 v 2.04894 2.04892 h -14.04981 -14.0498 z m -25.46528,-10.24466 v -2.63434 h 26.78244 26.78245 v 2.63434 2.63434 h -26.78245 -26.78244 z m 17.1452,26.56677 1.58787,-1.24013 v -7.10194 -7.10193 h -8.04936 -8.04937 v 3.34567 3.34568 l 6.21996,4.99003 c 3.42098,2.74451 6.32866,4.99289 6.46151,4.9964 0.13284,0.003 0.95607,-0.5517 1.82939,-1.23378 z m 49.97339,-19.94341 0.82106,-0.67062 -1.55282,-1.29793 c -2.86539,-2.39505 -2.57728,-2.52714 -2.57728,1.18162 v 3.27378 l 1.24399,-0.90812 c 0.68419,-0.49947 1.61347,-1.2099 2.06505,-1.57873 z m -76.24957,-2.06327 -0.0892,-1.294 -1.54801,1.36718 -1.54802,1.36717 1.54802,1.21019 1.54801,1.21018 0.0892,-1.28336 c 0.0491,-0.70585 0.0491,-1.86566 0,-2.57736 z m 50.68649,-19.5705 c -0.24615,-0.19612 -3.43656,-2.76042 -7.0898,-5.69843 -3.65323,-2.93803 -6.84677,-5.34187 -7.09676,-5.34187 -0.24999,0 -1.9331,1.21456 -3.74026,2.69902 -1.80716,1.48445 -4.80049,3.93668 -6.65184,5.44937 -1.85136,1.5127 -3.49124,2.86663 -3.64417,3.00873 -0.16102,0.14961 5.81481,0.25445 14.19616,0.24906 11.4289,-0.008 14.38006,-0.0843 14.02667,-0.36588 z"
       id="path1845" /><path
       style="fill:#ffffff;stroke-width:0.29469"
       d="m 526.8171,163.78422 c -0.60633,-0.2164 -1.453,-0.62317 -1.88149,-0.90393 l -0.77908,-0.51047 13.37244,-13.37486 13.37243,-13.37485 5.60111,5.56934 c 3.0806,3.06312 6.06523,5.80999 6.63252,6.10412 1.39707,0.72438 4.49673,0.72438 5.8938,0 0.56729,-0.29413 3.55193,-3.041 6.63253,-6.10412 l 5.60111,-5.56934 13.37242,13.37485 13.37244,13.37486 -0.77908,0.51047 c -2.03622,1.33419 -0.86887,1.29738 -41.14632,1.29738 -31.08102,0 -38.36699,-0.0731 -39.26483,-0.39345 z m -4.9067,-4.09653 c -1.18333,-1.91468 -1.23173,-3.03061 -1.14602,-26.42793 l 0.0825,-22.54254 0.73673,-1.46022 c 0.40519,-0.80312 0.86975,-1.49947 1.03234,-1.54744 0.16258,-0.048 6.26212,5.88042 13.55453,13.17418 l 13.25892,13.26137 -13.25862,13.26107 c -7.29223,7.29359 -13.34781,13.26107 -13.45682,13.26107 -0.10904,0 -0.47064,-0.4408 -0.80362,-0.97956 z m 74.08292,-12.2812 -13.25892,-13.26138 13.25892,-13.26137 c 7.29241,-7.29376 13.39195,-13.22214 13.55453,-13.17418 0.16259,0.048 0.62714,0.74432 1.03234,1.54744 l 0.73673,1.46022 v 23.43575 23.43577 l -0.74259,1.44298 c -0.40841,0.79364 -0.87296,1.48644 -1.03233,1.53956 -0.15937,0.0531 -6.25627,-5.87104 -13.54868,-13.16479 z m -32.12537,-2.22017 c -0.48834,-0.24106 -9.62329,-9.17444 -20.29988,-19.85195 l -19.41199,-19.41367 0.7793,-0.51061 c 2.0365,-1.33437 0.86851,-1.29754 41.14655,-1.29754 40.27804,0 39.11005,-0.0369 41.14655,1.29754 l 0.7793,0.51061 -19.4158,19.44581 c -11.16921,11.18647 -19.81856,19.62116 -20.36407,19.85867 -1.22745,0.53441 -3.23493,0.51651 -4.35996,-0.0389 z"
       id="path1448" /></g></svg>
